<svg xmlns="http://www.w3.org/2000/svg" viewBox="0 0 1200 630" width="1200" height="630" role="img" aria-label="Athletic Performance (4-day)">
  <defs>
    <linearGradient id="o" x1="0" y1="0" x2="0.6" y2="1">
      <stop offset="0" stop-color="#FFA24D"/><stop offset="1" stop-color="#F76B16"/>
    </linearGradient>
    <linearGradient id="b" x1="0.2" y1="0" x2="1" y2="1">
      <stop offset="0" stop-color="#1A7BFF"/><stop offset="1" stop-color="#0f2a5c"/>
    </linearGradient>
    <pattern id="dots" width="22" height="22" patternUnits="userSpaceOnUse">
      <circle cx="5" cy="5" r="3.4" fill="#fff" opacity="0.16"/>
    </pattern>
    <clipPath id="card"><rect width="1200" height="630" rx="30"/></clipPath>
  </defs>
  <g clip-path="url(#card)">
    <rect width="1200" height="630" fill="url(#b)"/>
    <rect width="1200" height="630" fill="url(#dots)"/>
    <g transform="translate(880,300)"><path d="M150.0 0.0 L469.3 25.8 L469.3 -25.8 Z" fill="#fff" opacity="0.13"/><path d="M143.9 42.3 L509.0 180.4 L525.7 123.4 Z" fill="#fff" opacity="0.13"/><path d="M126.2 81.1 L494.3 357.5 L530.5 301.1 Z" fill="#fff" opacity="0.13"/><path d="M98.2 113.4 L287.8 371.6 L326.8 337.7 Z" fill="#fff" opacity="0.13"/><path d="M62.3 136.4 L197.0 502.8 L251.0 478.1 Z" fill="#fff" opacity="0.13"/><path d="M21.3 148.5 L53.5 607.7 L119.9 598.1 Z" fill="#fff" opacity="0.13"/><path d="M-21.3 148.5 L-92.4 460.8 L-41.2 468.2 Z" fill="#fff" opacity="0.13"/><path d="M-62.3 136.4 L-251.0 478.1 L-197.0 502.8 Z" fill="#fff" opacity="0.13"/><path d="M-98.2 113.4 L-424.2 438.4 L-373.5 482.3 Z" fill="#fff" opacity="0.13"/><path d="M-126.2 81.1 L-408.8 232.0 L-380.8 275.5 Z" fill="#fff" opacity="0.13"/><path d="M-143.9 42.3 L-525.7 123.4 L-509.0 180.4 Z" fill="#fff" opacity="0.13"/><path d="M-150.0 0.0 L-609.1 -33.5 L-609.1 33.5 Z" fill="#fff" opacity="0.13"/><path d="M-143.9 -42.3 L-443.0 -157.0 L-457.6 -107.4 Z" fill="#fff" opacity="0.13"/><path d="M-126.2 -81.1 L-437.5 -316.5 L-469.6 -266.5 Z" fill="#fff" opacity="0.13"/><path d="M-98.2 -113.4 L-373.5 -482.3 L-424.2 -438.4 Z" fill="#fff" opacity="0.13"/><path d="M-62.3 -136.4 L-171.4 -437.6 L-218.5 -416.1 Z" fill="#fff" opacity="0.13"/><path d="M-21.3 -148.5 L-47.4 -537.9 L-106.1 -529.5 Z" fill="#fff" opacity="0.13"/><path d="M21.3 -148.5 L119.9 -598.1 L53.5 -607.7 Z" fill="#fff" opacity="0.13"/><path d="M62.3 -136.4 L218.5 -416.1 L171.4 -437.6 Z" fill="#fff" opacity="0.13"/><path d="M98.2 -113.4 L375.5 -388.0 L330.7 -426.9 Z" fill="#fff" opacity="0.13"/><path d="M126.2 -81.1 L530.5 -301.1 L494.3 -357.5 Z" fill="#fff" opacity="0.13"/><path d="M143.9 -42.3 L457.6 -107.4 L443.0 -157.0 Z" fill="#fff" opacity="0.13"/></g>

    <path d="M0 0 H700 L474 630 H0 Z" fill="url(#o)"/>
    <path d="M700 0 L474 630" fill="none" stroke="#141b2d" stroke-width="11" stroke-linejoin="round" stroke-linecap="round"/>
    <path d="M726 0 L500 630 L546 630 L772 0 Z" fill="#fff" stroke="#141b2d" stroke-width="7" stroke-linejoin="round" stroke-linecap="round"/>

    <g transform="translate(890,300)">
  <g transform="translate(0,14)">
    <rect x="-34" y="-212" width="68" height="46" rx="14" fill="#43536e" stroke="#141b2d" stroke-width="9" stroke-linejoin="round" stroke-linecap="round"/>
    <rect x="-70" y="-178" width="140" height="34" rx="16" fill="#8FA3BF" stroke="#141b2d" stroke-width="9" stroke-linejoin="round" stroke-linecap="round"/>
    <g transform="translate(150,-150) rotate(38)">
      <rect x="-22" y="-30" width="44" height="60" rx="14" fill="#8FA3BF" stroke="#141b2d" stroke-width="9" stroke-linejoin="round" stroke-linecap="round"/>
    </g>
    <circle r="168" fill="#43536e" stroke="#141b2d" stroke-width="11" stroke-linejoin="round" stroke-linecap="round"/>
    <circle r="142" fill="#fff" stroke="#141b2d" stroke-width="9" stroke-linejoin="round" stroke-linecap="round"/>
    <g stroke="#141b2d" stroke-width="9" stroke-linecap="round">
      <path d="M0 -118 V-92"/><path d="M0 118 V92"/><path d="M-118 0 H-92"/><path d="M118 0 H92"/>
    </g>
    <g stroke="#8FA3BF" stroke-width="6" stroke-linecap="round" opacity="0.85">
      <path d="M84 -84 L68 -68"/><path d="M-84 84 L-68 68"/>
      <path d="M-84 -84 L-68 -68"/><path d="M84 84 L68 68"/>
    </g>
    <path d="M0 14 V-104" stroke="#F76B16" stroke-width="16" stroke-linecap="round"/>
    <path d="M0 10 L74 58" stroke="#141b2d" stroke-width="13" stroke-linecap="round"/>
    <circle r="17" fill="#F76B16" stroke="#141b2d" stroke-width="8" stroke-linejoin="round" stroke-linecap="round"/>
  </g></g>

    <g font-family="'Barlow Condensed','Arial Narrow',Haettenschweiler,Impact,sans-serif" font-weight="800" font-size="100" letter-spacing="-1">
      <text x="70" y="268" fill="#141b2d" transform="translate(7,8)"><tspan x="70" dy="0">ATHLETIC</tspan><tspan x="70" dy="88">PERFORMANCE</tspan></text>
      <text x="70" y="268" fill="#fff" stroke="#141b2d" stroke-width="15"
            stroke-linejoin="round" paint-order="stroke"><tspan x="70" dy="0">ATHLETIC</tspan><tspan x="70" dy="88">PERFORMANCE</tspan></text>
    </g>

    <g transform="translate(70,402)">
      <rect width="290" height="72" rx="36" fill="#141b2d"/>
      <rect x="5" y="5" width="280" height="62" rx="31" fill="#F76B16"/>
      <text x="145" y="48" font-family="'Barlow Condensed','Arial Narrow',Haettenschweiler,Impact,sans-serif" font-weight="800" font-size="38" fill="#fff"
            text-anchor="middle" letter-spacing="2">4 DAYS / WEEK</text>
    </g>

    <text x="70" y="100" font-family="'Barlow Condensed','Arial Narrow',Haettenschweiler,Impact,sans-serif" font-weight="800" font-size="34" fill="#fff"
          letter-spacing="8" stroke="#141b2d" stroke-width="6" paint-order="stroke"
          stroke-linejoin="round">AJM FIT</text>

    

    <rect x="4" y="4" width="1192" height="622" rx="28" fill="none" stroke="#141b2d" stroke-width="9" stroke-linejoin="round" stroke-linecap="round"/>
  </g>
</svg>